<?xml version="1.0" encoding="UTF-8"?>
<svg fill="none" viewBox="0 0 328 100" xmlns="http://www.w3.org/2000/svg">
<path d="M0 0H328V100H0V0Z" fill="#fff"/>
<path d="m7.4586 37h-7.4586v-1h7.5414l12 2h12.059l12.02 5.0083 23.839 1.9866 12.041-3.0103 12.082 3.0205 11.939 0.9949h23.938l12.041-2.0069 12.031 2.0052 23.938-0.9974 12.072-1.006 12 3 11.938-0.9949h11.98l12.02-2.0035 12.042 1.0035h23.898l12-4h12.143l12 3h20.438v1h-20.562l-12-3h-11.857l-12 4h-24.102l-11.958-0.9965-11.98 1.9965h-12.02l-12.062 1.0051-12-3-11.928 0.994-24.062 1.0026-11.969-1.9948-11.959 1.9931h-24.062l-12.061-1.0051-11.918-2.9795-11.959 2.9897-24.161-2.0134-11.98-4.9917h-11.941l-12-2z" clip-rule="evenodd" fill="url(#b)" fill-rule="evenodd"/>
<path d="m30 94h3v3h-3v-3z" fill="#fff"/>
<path d="m42 73h3v3h-3v-3z" fill="#fff"/>
<path d="m50 73h11v4h-11v-4z" fill="#fff"/>
<path d="m66 74h3v3h-3v-3z" fill="#fff"/>
<path d="m86 56h11v6h-11v-6z" fill="#fff"/>
<path d="m98 56h11v6h-11v-6z" fill="#fff"/>
<path d="m134 42h11v6h-11v-6z" fill="#fff"/>
<path d="m182 11h11v4h-11v-4z" fill="#fff"/>
<path d="m11 82v-1h-7v1h7zm-8-2h4v-4h1v4h4v3h-4v4h-1v-4h-4v-3zm20 9v-7h-7v7h7zm-8-8h9v9h-4v4h-1v-4h-4v-9zm188-62v-4h-7v4h7zm-8-5h4v-1h1v1h4v6h-4v2h-1v-2h-4v-6zm20 12v-5h-7v5h7zm-8-6h4v-3h1v3h4v7h-4v5h-1v-5h-4v-7zm20 5v-3h-7v3h7zm-8-4h4v-1h1v1h4v5h-4v3h-1v-3h-4v-5zm20 7v-1h-7v1h7zm-8-2h4v-1h1v1h4v3h-4v1h-1v-1h-4v-3zm92-2v-2h-7v2h7zm-8-3h9v4h-4v1h-1v-1h-4v-4z" clip-rule="evenodd" fill="url(#a)" fill-rule="evenodd"/>
<path d="m27 90v-10h4v-1.5h1v1.5h4v10h-4v10h-1v-10h-4z" fill="url(#a)"/>
<path d="m39 81v-4h4v-3h1v3h4v4h-4v5h-1v-5h-4z" fill="url(#a)"/>
<path d="m51 77v-12h4v-5h1v5h4v12h-4v3h-1v-3h-4z" fill="url(#a)"/>
<path d="m63 69v-2h4v-6h1v6h4v2h-4v8h-1v-8h-4z" fill="url(#a)"/>
<path d="m75 68v-4h4v-3h1v3h4v4h-4v4h-1v-4h-4z" fill="url(#a)"/>
<path d="m87 66v-9h4v-2h1v2h4v9h-4v2h-1v-2h-4z" fill="url(#a)"/>
<path d="m99 60v-3h4v-5h1v5h4v3h-4v2h-1v-2h-4z" fill="url(#a)"/>
<path d="m111 56v-1h4v-2h1v2h4v1h-4v2h-1v-2h-4z" fill="url(#a)"/>
<path d="m123 57v-9h9v9h-4v3h-1v-3h-4z" fill="url(#a)"/>
<path d="m135 50v-19h4v-3h1v3h4v19h-9z" fill="url(#a)"/>
<path d="m147 32v-14h4v-1h1v1h4v14h-9z" fill="url(#a)"/>
<path d="m159 18v-1h4v-6h1v6h4v1h-9z" fill="url(#a)"/>
<path d="m171 17v-4h4v-4h1v4h4v4h-4v1h-1v-1h-4z" fill="url(#a)"/>
<path d="m183 14v-2h4v-5h1v5h4v2h-4v2h-1v-2h-4z" fill="url(#a)"/>
<path d="m243 32v-7h9v7h-4v1h-1v-1h-4z" fill="url(#a)"/>
<path d="m255 32v-8h4v-3h1v3h4v8h-9z" fill="url(#a)"/>
<path d="m267 24v-3h4v-4h1v4h4v3h-4v3h-1v-3h-4z" fill="url(#a)"/>
<path d="m279 19v-2h4v-4h1v4h4v2h-4v2h-1v-2h-4z" fill="url(#a)"/>
<path d="m291 18v-4h4v-1h1v1h4v4h-4v1h-1v-1h-4z" fill="url(#a)"/>
<path d="m303 22v-8h9v8h-4v1h-1v-1h-4z" fill="url(#a)"/>
<path d="m121 55.376c1e-3 0.0412 1e-3 0.0825 1e-3 0.1239 0 3.0376-2.462 5.5-5.5 5.5s-5.5-2.4624-5.5-5.5 2.462-5.5 5.5-5.5c0.749 0 1.464 0.1499 2.115 0.4213 0.674 0.2809 1.28 0.6919 1.786 1.2017l51.068-34.896c-0.286-0.6451-0.451-1.3555-0.468-2.1026-1e-3 -0.0412-1e-3 -0.0825-1e-3 -0.1239 0-3.0376 2.462-5.5 5.5-5.5s5.5 2.4624 5.5 5.5-2.462 5.5-5.5 5.5c-0.749 0-1.464-0.1499-2.115-0.4213-0.674-0.2809-1.28-0.6919-1.786-1.2017l-51.068 34.896c0.286 0.6451 0.451 1.3555 0.468 2.1026zm1.87-1.2782c0.086 0.4542 0.131 0.9229 0.131 1.4021 0 4.1421-3.358 7.5-7.5 7.5s-7.5-3.3579-7.5-7.5 3.358-7.5 7.5-7.5c1.464 0 2.829 0.4193 3.984 1.1443l48.647-33.242c-0.086-0.4542-0.131-0.9229-0.131-1.4021 0-4.1421 3.358-7.5 7.5-7.5s7.5 3.3579 7.5 7.5-3.358 7.5-7.5 7.5c-1.464 0-2.829-0.4193-3.984-1.1443l-48.647 33.242z" clip-rule="evenodd" fill="#fff" fill-rule="evenodd"/>
<path d="m115.5 16-4.5 4h4v36h1v-36h4l-4.5-4z" fill="#00B67A"/>
<path d="m111 14h60v1h-60v-1z" fill="#E94E2F"/>
<path d="m1.4909 1h-1.4909v-1h1.4909v1zm5.9636 0h-2.9818v-1h2.9818v1zm5.9636 0h-2.9818v-1h2.9818v1zm5.9636 0h-2.9818v-1h2.9818v1zm5.9637 0h-2.9819v-1h2.9819v1zm5.9636 0h-2.9818v-1h2.9818v1zm5.9636 0h-2.9818v-1h2.9818v1zm5.9637 0h-2.9818v-1h2.9818v1zm5.9636 0h-2.9818v-1h2.9818v1zm5.9636 0h-2.9818v-1h2.9818v1zm5.9637 0h-2.9818v-1h2.9818v1zm5.9636 0h-2.9818v-1h2.9818v1zm5.9637 0h-2.9819v-1h2.9819v1zm5.9636 0h-2.9818v-1h2.9818v1zm5.9636 0h-2.9818v-1h2.9818v1zm5.9637 0h-2.9818v-1h2.9818v1zm5.9636 0h-2.9818v-1h2.9818v1zm5.9639 0h-2.9821v-1h2.9821v1zm5.963 0h-2.981v-1h2.981v1zm5.964 0h-2.982v-1h2.982v1zm5.964 0h-2.982v-1h2.982v1zm5.963 0h-2.982v-1h2.982v1zm5.964 0h-2.982v-1h2.982v1zm5.964 0h-2.982v-1h2.982v1zm5.963 0h-2.982v-1h2.982v1zm5.964 0h-2.982v-1h2.982v1zm5.963 0h-2.981v-1h2.981v1zm5.964 0h-2.982v-1h2.982v1zm5.964 0h-2.982v-1h2.982v1zm5.963 0h-2.982v-1h2.982v1zm5.964 0h-2.982v-1h2.982v1zm5.964 0h-2.982v-1h2.982v1zm5.963 0h-2.982v-1h2.982v1zm5.964 0h-2.982v-1h2.982v1zm5.963 0h-2.981v-1h2.981v1zm5.964 0h-2.982v-1h2.982v1zm5.964 0h-2.982v-1h2.982v1zm5.963 0h-2.982v-1h2.982v1zm5.964 0h-2.982v-1h2.982v1zm5.964 0h-2.982v-1h2.982v1zm5.963 0h-2.982v-1h2.982v1zm5.964 0h-2.982v-1h2.982v1zm5.963 0h-2.981v-1h2.981v1zm5.964 0h-2.982v-1h2.982v1zm5.964 0h-2.982v-1h2.982v1zm5.963 0h-2.982v-1h2.982v1zm5.964 0h-2.982v-1h2.982v1zm5.964 0h-2.982v-1h2.982v1zm5.963 0h-2.982v-1h2.982v1zm5.964 0h-2.982v-1h2.982v1zm5.963 0h-2.981v-1h2.981v1zm5.964 0h-2.982v-1h2.982v1zm5.964 0h-2.982v-1h2.982v1zm5.963 0h-2.982v-1h2.982v1zm5.964 0h-2.982v-1h2.982v1zm4.473 0h-1.491v-1h1.491v1z" clip-rule="evenodd" fill="#E94E2F" fill-rule="evenodd"/>
<path d="m1.4909 56h-1.4909v-1h1.4909v1zm5.9636 0h-2.9818v-1h2.9818v1zm5.9636 0h-2.9818v-1h2.9818v1zm5.9636 0h-2.9818v-1h2.9818v1zm5.9637 0h-2.9819v-1h2.9819v1zm5.9636 0h-2.9818v-1h2.9818v1zm5.9636 0h-2.9818v-1h2.9818v1zm5.9637 0h-2.9818v-1h2.9818v1zm5.9636 0h-2.9818v-1h2.9818v1zm5.9636 0h-2.9818v-1h2.9818v1zm5.9637 0h-2.9818v-1h2.9818v1zm5.9636 0h-2.9818v-1h2.9818v1zm5.9637 0h-2.9819v-1h2.9819v1zm5.9636 0h-2.9818v-1h2.9818v1zm5.9636 0h-2.9818v-1h2.9818v1zm5.9637 0h-2.9818v-1h2.9818v1zm5.9636 0h-2.9818v-1h2.9818v1zm5.9639 0h-2.9821v-1h2.9821v1zm5.963 0h-2.981v-1h2.981v1zm5.964 0h-2.982v-1h2.982v1zm5.964 0h-2.982v-1h2.982v1zm5.963 0h-2.982v-1h2.982v1zm5.964 0h-2.982v-1h2.982v1zm5.964 0h-2.982v-1h2.982v1zm5.963 0h-2.982v-1h2.982v1zm5.964 0h-2.982v-1h2.982v1zm5.963 0h-2.981v-1h2.981v1zm5.964 0h-2.982v-1h2.982v1zm5.964 0h-2.982v-1h2.982v1zm5.963 0h-2.982v-1h2.982v1zm5.964 0h-2.982v-1h2.982v1zm5.964 0h-2.982v-1h2.982v1zm5.963 0h-2.982v-1h2.982v1zm5.964 0h-2.982v-1h2.982v1zm5.963 0h-2.981v-1h2.981v1zm5.964 0h-2.982v-1h2.982v1zm5.964 0h-2.982v-1h2.982v1zm5.963 0h-2.982v-1h2.982v1zm5.964 0h-2.982v-1h2.982v1zm5.964 0h-2.982v-1h2.982v1zm5.963 0h-2.982v-1h2.982v1zm5.964 0h-2.982v-1h2.982v1zm5.963 0h-2.981v-1h2.981v1zm5.964 0h-2.982v-1h2.982v1zm5.964 0h-2.982v-1h2.982v1zm5.963 0h-2.982v-1h2.982v1zm5.964 0h-2.982v-1h2.982v1zm5.964 0h-2.982v-1h2.982v1zm5.963 0h-2.982v-1h2.982v1zm5.964 0h-2.982v-1h2.982v1zm5.963 0h-2.981v-1h2.981v1zm5.964 0h-2.982v-1h2.982v1zm5.964 0h-2.982v-1h2.982v1zm5.963 0h-2.982v-1h2.982v1zm5.964 0h-2.982v-1h2.982v1zm4.473 0h-1.491v-1h1.491v1z" clip-rule="evenodd" fill="#35DF90" fill-rule="evenodd"/>
<path d="m3.72 46.65c0.51334 0 0.97334 0.1133 1.38 0.34 0.40667 0.2266 0.72334 0.5433 0.95 0.95 0.23334 0.4066 0.35 0.8766 0.35 1.41 0 0.5333-0.11666 1.0066-0.35 1.42-0.22666 0.4066-0.54333 0.7233-0.95 0.95-0.40666 0.2266-0.86666 0.34-1.38 0.34-0.39333 0-0.75333-0.0767-1.08-0.23-0.32666-0.1534-0.59666-0.3767-0.81-0.67v0.84h-0.92v-7.42h0.96v2.92c0.21334-0.28 0.48-0.49 0.8-0.63 0.32-0.1467 0.67-0.22 1.05-0.22zm-0.08 4.57c0.34 0 0.64334-0.0767 0.91-0.23 0.27334-0.16 0.48667-0.38 0.64-0.66 0.16-0.2867 0.24-0.6134 0.24-0.98 0-0.3667-0.08-0.69-0.24-0.97-0.15333-0.2867-0.36666-0.5067-0.64-0.66-0.26666-0.1534-0.57-0.23-0.91-0.23-0.33333 0-0.63666 0.0766-0.91 0.23-0.27333 0.1533-0.48666 0.3733-0.64 0.66-0.15333 0.28-0.23 0.6033-0.23 0.97 0 0.3666 0.07667 0.6933 0.23 0.98 0.15334 0.28 0.36667 0.5 0.64 0.66 0.27334 0.1533 0.57667 0.23 0.91 0.23z" fill="#828282"/>
<path d="m12.666 46.7v5.3h-0.91v-0.8c-0.1933 0.2733-0.45 0.4866-0.77 0.64-0.3133 0.1466-0.6566 0.22-1.03 0.22-0.70667 0-1.2633-0.1934-1.67-0.58-0.40667-0.3934-0.61-0.97-0.61-1.73v-3.05h0.96v2.94c0 0.5133 0.12333 0.9033 0.37 1.17 0.24667 0.26 0.6 0.39 1.06 0.39 0.5067 0 0.9067-0.1534 1.2-0.46 0.2934-0.3067 0.44-0.74 0.44-1.3v-2.74h0.96z" fill="#828282"/>
<path d="m19.184 46.7-2.57 5.83c-0.2266 0.54-0.4933 0.92-0.8 1.14-0.3 0.22-0.6633 0.33-1.09 0.33-0.26 0-0.5133-0.0434-0.76-0.13-0.24-0.08-0.44-0.2-0.6-0.36l0.41-0.72c0.2734 0.26 0.59 0.39 0.95 0.39 0.2334 0 0.4267-0.0634 0.58-0.19 0.16-0.12 0.3034-0.33 0.43-0.63l0.17-0.37-2.34-5.29h1l1.85 4.24 1.83-4.24h0.94z" fill="#828282"/>
<path d="m24.506 45v7h-0.99v-6.13h-1.58v-0.87h2.57z" fill="#828282"/>
<path d="m26.697 52.06c-0.1867 0-0.3467-0.0634-0.48-0.19-0.1334-0.1334-0.2-0.3-0.2-0.5 0-0.1934 0.0666-0.3534 0.2-0.48 0.1333-0.1334 0.2933-0.2 0.48-0.2 0.1866 0 0.3433 0.0633 0.47 0.19 0.1266 0.1266 0.19 0.29 0.19 0.49s-0.0667 0.3666-0.2 0.5c-0.1267 0.1266-0.28 0.19-0.46 0.19z" fill="#828282"/>
<path d="m31.045 52.08c-0.5533 0-1.0467-0.14-1.48-0.42-0.4267-0.2867-0.7633-0.7-1.01-1.24s-0.37-1.18-0.37-1.92 0.1233-1.38 0.37-1.92 0.5833-0.95 1.01-1.23c0.4333-0.2867 0.9267-0.43 1.48-0.43 0.5467 0 1.0333 0.1433 1.46 0.43 0.4333 0.28 0.7733 0.69 1.02 1.23s0.37 1.18 0.37 1.92-0.1233 1.38-0.37 1.92-0.5867 0.9533-1.02 1.24c-0.4267 0.28-0.9133 0.42-1.46 0.42zm0-0.89c0.56 0 1.0067-0.23 1.34-0.69 0.34-0.46 0.51-1.1267 0.51-2 0-0.8734-0.17-1.54-0.51-2-0.3333-0.46-0.78-0.69-1.34-0.69-0.5667 0-1.02 0.23-1.36 0.69-0.3333 0.46-0.5 1.1266-0.5 2 0 0.8733 0.1667 1.54 0.5 2 0.34 0.46 0.7933 0.69 1.36 0.69z" fill="#828282"/>
<path d="m37.715 52.08c-0.5533 0-1.0466-0.14-1.48-0.42-0.4266-0.2867-0.7633-0.7-1.01-1.24-0.2466-0.54-0.37-1.18-0.37-1.92s0.1234-1.38 0.37-1.92c0.2467-0.54 0.5834-0.95 1.01-1.23 0.4334-0.2867 0.9267-0.43 1.48-0.43 0.5467 0 1.0334 0.1433 1.46 0.43 0.4334 0.28 0.7734 0.69 1.02 1.23 0.2467 0.54 0.37 1.18 0.37 1.92s-0.1233 1.38-0.37 1.92c-0.2466 0.54-0.5866 0.9533-1.02 1.24-0.4266 0.28-0.9133 0.42-1.46 0.42zm0-0.89c0.56 0 1.0067-0.23 1.34-0.69 0.34-0.46 0.51-1.1267 0.51-2 0-0.8734-0.17-1.54-0.51-2-0.3333-0.46-0.78-0.69-1.34-0.69-0.5666 0-1.02 0.23-1.36 0.69-0.3333 0.46-0.5 1.1266-0.5 2 0 0.8733 0.1667 1.54 0.5 2 0.34 0.46 0.7934 0.69 1.36 0.69z" fill="#828282"/>
<path d="m18.246 23.9h-1.82v1.79h-0.84v-1.79h-1.82v-0.79h1.82v-1.8h0.84v1.8h1.82v0.79z" fill="#00B67A"/>
<path d="m26.362 23.33c0.4 0.1533 0.7067 0.3733 0.92 0.66 0.2133 0.2866 0.32 0.63 0.32 1.03 0 0.42-0.1133 0.7866-0.34 1.1-0.2267 0.3066-0.55 0.5433-0.97 0.71-0.42 0.1666-0.9133 0.25-1.48 0.25-0.56 0-1.05-0.0834-1.47-0.25-0.4133-0.1667-0.7333-0.4034-0.96-0.71-0.2267-0.3134-0.34-0.68-0.34-1.1 0-0.4 0.1033-0.7434 0.31-1.03 0.2133-0.2867 0.52-0.5067 0.92-0.66-0.32-0.1534-0.5633-0.3567-0.73-0.61-0.1667-0.2534-0.25-0.5534-0.25-0.9 0-0.3867 0.1033-0.7234 0.31-1.01 0.2133-0.2867 0.51-0.5067 0.89-0.66 0.38-0.1534 0.82-0.23 1.32-0.23 0.5067 0 0.95 0.0766 1.33 0.23 0.3867 0.1533 0.6833 0.3733 0.89 0.66 0.2133 0.2866 0.32 0.6233 0.32 1.01 0 0.34-0.0867 0.64-0.26 0.9-0.1667 0.2533-0.41 0.4566-0.73 0.61zm-1.55-2.6c-0.4733 0-0.8467 0.1033-1.12 0.31-0.2733 0.2-0.41 0.4733-0.41 0.82 0 0.3466 0.1333 0.62 0.4 0.82 0.2733 0.2 0.65 0.3 1.13 0.3 0.4867 0 0.8667-0.1 1.14-0.3 0.28-0.2 0.42-0.4734 0.42-0.82 0-0.3467-0.1433-0.62-0.43-0.82-0.28-0.2067-0.6567-0.31-1.13-0.31zm0 5.54c0.5533 0 0.99-0.1134 1.31-0.34 0.32-0.2334 0.48-0.5467 0.48-0.94 0-0.3867-0.16-0.69-0.48-0.91-0.32-0.2267-0.7567-0.34-1.31-0.34s-0.9867 0.1133-1.3 0.34c-0.3133 0.22-0.47 0.5233-0.47 0.91 0 0.3933 0.1567 0.7066 0.47 0.94 0.3133 0.2266 0.7467 0.34 1.3 0.34z" fill="#00B67A"/>
<path d="m31.197 22.94c0.6866 0.0666 1.21 0.28 1.57 0.64 0.36 0.3533 0.54 0.8066 0.54 1.36 0 0.4-0.1 0.7633-0.3 1.09-0.2 0.32-0.5 0.5766-0.9 0.77-0.3934 0.1866-0.8767 0.28-1.45 0.28-0.5 0-0.98-0.0734-1.44-0.22-0.46-0.1534-0.8367-0.3634-1.13-0.63l0.46-0.79c0.24 0.2266 0.5466 0.41 0.92 0.55 0.3733 0.1333 0.77 0.2 1.19 0.2 0.52 0 0.9233-0.11 1.21-0.33 0.2933-0.22 0.44-0.5234 0.44-0.91 0-0.3867-0.1434-0.6867-0.43-0.9-0.2867-0.2134-0.72-0.32-1.3-0.32h-0.56v-0.7l1.76-2.16h-3.37v-0.87h4.62v0.68l-1.83 2.26z" fill="#00B67A"/>
<path d="m34.9 27.06c-0.1867 0-0.3467-0.0634-0.48-0.19-0.1333-0.1334-0.2-0.3-0.2-0.5 0-0.1934 0.0667-0.3534 0.2-0.48 0.1333-0.1334 0.2933-0.2 0.48-0.2s0.3433 0.0633 0.47 0.19c0.1267 0.1266 0.19 0.29 0.19 0.49s-0.0667 0.3666-0.2 0.5c-0.1267 0.1266-0.28 0.19-0.46 0.19z" fill="#00B67A"/>
<path d="m41.478 20v0.68l-2.83 6.32h-1.06l2.77-6.13h-3.2v1.25h-0.96v-2.12h5.28z" fill="#00B67A"/>
<path d="m48.281 21.65c0.5133 0 0.9733 0.1133 1.38 0.34 0.4067 0.2266 0.7233 0.5433 0.95 0.95 0.2333 0.4066 0.35 0.8766 0.35 1.41 0 0.5333-0.1167 1.0066-0.35 1.42-0.2267 0.4066-0.5433 0.7233-0.95 0.95-0.4067 0.2266-0.8667 0.34-1.38 0.34-0.38 0-0.73-0.0734-1.05-0.22-0.3133-0.1467-0.58-0.36-0.8-0.64v2.74h-0.96v-7.24h0.92v0.84c0.2133-0.2934 0.4833-0.5134 0.81-0.66 0.3267-0.1534 0.6867-0.23 1.08-0.23zm-0.08 4.57c0.34 0 0.6433-0.0767 0.91-0.23 0.2733-0.16 0.4867-0.38 0.64-0.66 0.16-0.2867 0.24-0.6134 0.24-0.98 0-0.3667-0.08-0.69-0.24-0.97-0.1533-0.2867-0.3667-0.5067-0.64-0.66-0.2667-0.1534-0.57-0.23-0.91-0.23-0.3333 0-0.6367 0.08-0.91 0.24-0.2667 0.1533-0.48 0.37-0.64 0.65-0.1533 0.28-0.23 0.6033-0.23 0.97 0 0.3666 0.0767 0.6933 0.23 0.98 0.1533 0.28 0.3667 0.5 0.64 0.66 0.2733 0.1533 0.5767 0.23 0.91 0.23z" fill="#00B67A"/>
<path d="m52.287 21.7h0.96v5.3h-0.96v-5.3zm0.48-1.02c-0.1867 0-0.3433-0.06-0.47-0.18-0.12-0.12-0.18-0.2667-0.18-0.44 0-0.1734 0.06-0.32 0.18-0.44 0.1267-0.1267 0.2833-0.19 0.47-0.19s0.34 0.06 0.46 0.18c0.1267 0.1133 0.19 0.2566 0.19 0.43 0 0.18-0.0633 0.3333-0.19 0.46-0.12 0.12-0.2733 0.18-0.46 0.18z" fill="#00B67A"/>
<path d="m57.89 21.65c0.5133 0 0.9733 0.1133 1.38 0.34 0.4066 0.2266 0.7233 0.5433 0.95 0.95 0.2333 0.4066 0.35 0.8766 0.35 1.41 0 0.5333-0.1167 1.0066-0.35 1.42-0.2267 0.4066-0.5434 0.7233-0.95 0.95-0.4067 0.2266-0.8667 0.34-1.38 0.34-0.38 0-0.73-0.0734-1.05-0.22-0.3134-0.1467-0.58-0.36-0.8-0.64v2.74h-0.96v-7.24h0.92v0.84c0.2133-0.2934 0.4833-0.5134 0.81-0.66 0.3266-0.1534 0.6866-0.23 1.08-0.23zm-0.08 4.57c0.34 0 0.6433-0.0767 0.91-0.23 0.2733-0.16 0.4866-0.38 0.64-0.66 0.16-0.2867 0.24-0.6134 0.24-0.98 0-0.3667-0.08-0.69-0.24-0.97-0.1534-0.2867-0.3667-0.5067-0.64-0.66-0.2667-0.1534-0.57-0.23-0.91-0.23-0.3334 0-0.6367 0.08-0.91 0.24-0.2667 0.1533-0.48 0.37-0.64 0.65-0.1534 0.28-0.23 0.6033-0.23 0.97 0 0.3666 0.0766 0.6933 0.23 0.98 0.1533 0.28 0.3666 0.5 0.64 0.66 0.2733 0.1533 0.5766 0.23 0.91 0.23z" fill="#00B67A"/>
<path d="m63.416 27.06c-0.4334 0-0.85-0.0567-1.25-0.17-0.4-0.12-0.7134-0.27-0.94-0.45l0.4-0.76c0.2333 0.1666 0.5166 0.3 0.85 0.4 0.3333 0.1 0.67 0.15 1.01 0.15 0.84 0 1.26-0.24 1.26-0.72 0-0.16-0.0567-0.2867-0.17-0.38-0.1134-0.0934-0.2567-0.16-0.43-0.2-0.1667-0.0467-0.4067-0.0967-0.72-0.15-0.4267-0.0667-0.7767-0.1434-1.05-0.23-0.2667-0.0867-0.4967-0.2334-0.69-0.44-0.1934-0.2067-0.29-0.4967-0.29-0.87 0-0.48 0.2-0.8634 0.6-1.15 0.4-0.2934 0.9366-0.44 1.61-0.44 0.3533 0 0.7066 0.0433 1.06 0.13 0.3533 0.0866 0.6433 0.2033 0.87 0.35l-0.41 0.76c-0.4334-0.28-0.9434-0.42-1.53-0.42-0.4067 0-0.7167 0.0666-0.93 0.2-0.2134 0.1333-0.32 0.31-0.32 0.53 0 0.1733 0.06 0.31 0.18 0.41s0.2666 0.1733 0.44 0.22c0.18 0.0466 0.43 0.1 0.75 0.16 0.4266 0.0733 0.77 0.1533 1.03 0.24 0.2666 0.08 0.4933 0.22 0.68 0.42 0.1866 0.2 0.28 0.48 0.28 0.84 0 0.48-0.2067 0.8633-0.62 1.15-0.4067 0.28-0.9634 0.42-1.67 0.42z" fill="#00B67A"/>
<path d="m70.822 28.94c-0.38-0.6134-0.6734-1.3167-0.88-2.11-0.2067-0.8-0.31-1.6567-0.31-2.57 0-0.9134 0.1033-1.77 0.31-2.57 0.2066-0.8067 0.5-1.51 0.88-2.11h0.91c-0.4 0.7-0.6933 1.4333-0.88 2.2-0.1867 0.7666-0.28 1.5933-0.28 2.48 0 0.8866 0.0933 1.7133 0.28 2.48 0.1867 0.7666 0.48 1.5 0.88 2.2h-0.91z" fill="#00B67A"/>
<path d="m77.201 23.9h-1.82v1.79h-0.84v-1.79h-1.82v-0.79h1.82v-1.8h0.84v1.8h1.82v0.79z" fill="#00B67A"/>
<path d="m80.351 22.79c1 0 1.7334 0.19 2.2 0.57 0.4734 0.3733 0.71 0.8866 0.71 1.54 0 0.4133-0.1 0.7866-0.3 1.12-0.1933 0.3266-0.49 0.5866-0.89 0.78-0.3933 0.1866-0.88 0.28-1.46 0.28-0.4933 0-0.97-0.0734-1.43-0.22-0.46-0.1534-0.84-0.3634-1.14-0.63l0.46-0.79c0.24 0.2266 0.5467 0.41 0.92 0.55 0.3734 0.1333 0.7667 0.2 1.18 0.2 0.5267 0 0.9334-0.11 1.22-0.33 0.2934-0.2267 0.44-0.5334 0.44-0.92 0-0.42-0.16-0.7367-0.48-0.95-0.32-0.22-0.8666-0.33-1.64-0.33h-1.59l0.37-3.66h3.95v0.87h-3.11l-0.19 1.92h0.78z" fill="#00B67A"/>
<path d="m84.753 27.06c-0.1866 0-0.3466-0.0634-0.48-0.19-0.1333-0.1334-0.2-0.3-0.2-0.5 0-0.1934 0.0667-0.3534 0.2-0.48 0.1334-0.1334 0.2934-0.2 0.48-0.2 0.1867 0 0.3434 0.0633 0.47 0.19 0.1267 0.1266 0.19 0.29 0.19 0.49s-0.0666 0.3666-0.2 0.5c-0.1266 0.1266-0.28 0.19-0.46 0.19z" fill="#00B67A"/>
<path d="m90.737 23.33c0.4 0.1533 0.7067 0.3733 0.92 0.66 0.2133 0.2866 0.32 0.63 0.32 1.03 0 0.42-0.1133 0.7866-0.34 1.1-0.2267 0.3066-0.55 0.5433-0.97 0.71-0.42 0.1666-0.9133 0.25-1.48 0.25-0.56 0-1.05-0.0834-1.47-0.25-0.4133-0.1667-0.7333-0.4034-0.96-0.71-0.2267-0.3134-0.34-0.68-0.34-1.1 0-0.4 0.1033-0.7434 0.31-1.03 0.2133-0.2867 0.52-0.5067 0.92-0.66-0.32-0.1534-0.5633-0.3567-0.73-0.61-0.1667-0.2534-0.25-0.5534-0.25-0.9 0-0.3867 0.1033-0.7234 0.31-1.01 0.2133-0.2867 0.51-0.5067 0.89-0.66 0.38-0.1534 0.82-0.23 1.32-0.23 0.5067 0 0.95 0.0766 1.33 0.23 0.3867 0.1533 0.6833 0.3733 0.89 0.66 0.2133 0.2866 0.32 0.6233 0.32 1.01 0 0.34-0.0867 0.64-0.26 0.9-0.1667 0.2533-0.41 0.4566-0.73 0.61zm-1.55-2.6c-0.4733 0-0.8467 0.1033-1.12 0.31-0.2733 0.2-0.41 0.4733-0.41 0.82 0 0.3466 0.1333 0.62 0.4 0.82 0.2733 0.2 0.65 0.3 1.13 0.3 0.4867 0 0.8667-0.1 1.14-0.3 0.28-0.2 0.42-0.4734 0.42-0.82 0-0.3467-0.1433-0.62-0.43-0.82-0.28-0.2067-0.6567-0.31-1.13-0.31zm0 5.54c0.5533 0 0.99-0.1134 1.31-0.34 0.32-0.2334 0.48-0.5467 0.48-0.94 0-0.3867-0.16-0.69-0.48-0.91-0.32-0.2267-0.7567-0.34-1.31-0.34s-0.9867 0.1133-1.3 0.34c-0.3133 0.22-0.47 0.5233-0.47 0.91 0 0.3933 0.1567 0.7066 0.47 0.94 0.3133 0.2266 0.7467 0.34 1.3 0.34z" fill="#00B67A"/>
<path d="m95.912 22.75c0.46 0 0.87 0.0866 1.23 0.26 0.3666 0.1733 0.6533 0.4233 0.86 0.75 0.2066 0.32 0.31 0.69 0.31 1.11 0 0.44-0.11 0.8266-0.33 1.16-0.2134 0.3333-0.51 0.5933-0.89 0.78-0.3734 0.18-0.7934 0.27-1.26 0.27-0.94 0-1.6667-0.3034-2.18-0.91-0.5067-0.6067-0.76-1.4667-0.76-2.58 0-0.78 0.1366-1.4434 0.41-1.99 0.28-0.5534 0.6666-0.97 1.16-1.25 0.5-0.2867 1.08-0.43 1.74-0.43 0.34 0 0.66 0.0366 0.96 0.11 0.3 0.0666 0.56 0.1666 0.78 0.3l-0.38 0.78c-0.3334-0.22-0.78-0.33-1.34-0.33-0.7267 0-1.2967 0.2266-1.71 0.68-0.4134 0.4466-0.62 1.1-0.62 1.96 0 0.1066 0.0033 0.19 0.01 0.25 0.1999-0.3 0.4733-0.5267 0.82-0.68 0.3533-0.16 0.75-0.24 1.19-0.24zm-0.12 3.52c0.46 0 0.8333-0.1234 1.12-0.37 0.2866-0.2467 0.43-0.5767 0.43-0.99 0-0.4134-0.1467-0.74-0.44-0.98-0.2867-0.2467-0.6734-0.37-1.16-0.37-0.3134 0-0.5934 0.06-0.84 0.18-0.24 0.12-0.43 0.2833-0.57 0.49-0.1334 0.2066-0.2 0.4366-0.2 0.69 0 0.2466 0.0633 0.4733 0.19 0.68 0.1333 0.2 0.3233 0.3633 0.57 0.49 0.2533 0.12 0.5533 0.18 0.9 0.18z" fill="#00B67A"/>
<path d="m100.39 23.76c-0.4869 0-0.8803-0.1767-1.1803-0.53-0.3-0.3534-0.45-0.8134-0.45-1.38 0-0.5667 0.15-1.0267 0.45-1.38 0.3-0.3534 0.6934-0.53 1.1803-0.53 0.486 0 0.876 0.1766 1.17 0.53 0.3 0.3466 0.45 0.8066 0.45 1.38 0 0.5733-0.15 1.0366-0.45 1.39-0.294 0.3466-0.684 0.52-1.17 0.52zm4.22-3.76h0.77l-4.78 7h-0.7703l4.7803-7zm-4.22 3.19c0.306 0 0.546-0.1167 0.72-0.35 0.173-0.24 0.26-0.57 0.26-0.99s-0.087-0.7467-0.26-0.98c-0.174-0.24-0.414-0.36-0.72-0.36-0.3 0-0.5403 0.12-0.7203 0.36-0.1733 0.24-0.26 0.5666-0.26 0.98 0 0.4133 0.0867 0.74 0.26 0.98 0.18 0.24 0.4203 0.36 0.7203 0.36zm4.43 3.87c-0.487 0-0.88-0.1734-1.18-0.52-0.294-0.3534-0.44-0.8167-0.44-1.39 0-0.5734 0.146-1.0334 0.44-1.38 0.3-0.3534 0.693-0.53 1.18-0.53 0.486 0 0.88 0.1766 1.18 0.53 0.3 0.3533 0.45 0.8133 0.45 1.38 0 0.5666-0.15 1.0266-0.45 1.38-0.3 0.3533-0.694 0.53-1.18 0.53zm0-0.57c0.3 0 0.536-0.12 0.71-0.36 0.18-0.24 0.27-0.5667 0.27-0.98 0-0.4134-0.09-0.74-0.27-0.98-0.174-0.24-0.41-0.36-0.71-0.36-0.307 0-0.547 0.12-0.72 0.36-0.174 0.2333-0.26 0.56-0.26 0.98s0.086 0.75 0.26 0.99c0.173 0.2333 0.413 0.35 0.72 0.35z" fill="#00B67A"/>
<path d="m106.94 28.94c0.4-0.7 0.693-1.4334 0.88-2.2 0.193-0.7667 0.29-1.5934 0.29-2.48 0-0.8867-0.097-1.7134-0.29-2.48-0.187-0.7667-0.48-1.5-0.88-2.2h0.91c0.387 0.6 0.683 1.3 0.89 2.1s0.31 1.66 0.31 2.58c0 0.9133-0.103 1.77-0.31 2.57s-0.503 1.5033-0.89 2.11h-0.91z" fill="#00B67A"/>
<path d="m3.89 10.69c-0.14 0.12-0.31333 0.2134-0.52 0.28-0.20666 0.06-0.42 0.09-0.64 0.09-0.53333 0-0.94666-0.1433-1.24-0.43-0.29333-0.2866-0.44-0.69663-0.44-1.23v-2.91h-0.9v-0.79h0.9v-1.16h0.96v1.16h1.52v0.79h-1.52v2.87c0 0.28667 0.07 0.50667 0.21 0.65996 0.14667 0.1534 0.35334 0.23 0.62 0.23 0.29334 0 0.54334-0.0833 0.75-0.25l0.3 0.69z" fill="#828282"/>
<path d="m7.8606 5.65c0.51333 0 0.97333 0.11333 1.38 0.34s0.72333 0.54333 0.94995 0.95c0.2334 0.40667 0.3501 0.87667 0.3501 1.41s-0.1167 1.0067-0.3501 1.42c-0.22662 0.40666-0.54328 0.72336-0.94995 0.94996-0.40667 0.2267-0.86667 0.34-1.38 0.34-0.38 0-0.73-0.0733-1.05-0.22-0.31333-0.1466-0.58-0.36-0.8-0.64v2.74h-0.96v-7.24h0.92v0.84c0.21333-0.29333 0.48333-0.51333 0.81-0.66 0.32667-0.15333 0.68667-0.23 1.08-0.23zm-0.08 4.57c0.34 0 0.64333-0.0766 0.91-0.22996 0.27333-0.16 0.48667-0.38 0.64-0.66 0.16-0.28667 0.24-0.61333 0.24-0.98s-0.08-0.69-0.24-0.97c-0.15333-0.28667-0.36667-0.50667-0.64-0.66-0.26667-0.15333-0.57-0.23-0.91-0.23-0.33333 0-0.63667 0.08-0.91 0.24-0.26667 0.15333-0.48 0.37-0.64 0.65-0.15333 0.28-0.23 0.60333-0.23 0.97s0.07667 0.69333 0.23 0.98c0.15333 0.28 0.36667 0.5 0.64 0.66 0.27333 0.15336 0.57667 0.22996 0.91 0.22996z" fill="#828282"/>
<path d="m176.06 15.326-60 41-1.128-1.6513 60-41 1.128 1.6513z" clip-rule="evenodd" fill="#E94E2F" fill-rule="evenodd"/>
<path d="m121 55.5c0 3.0376-2.462 5.5-5.5 5.5s-5.5-2.4624-5.5-5.5 2.462-5.5 5.5-5.5 5.5 2.4624 5.5 5.5z" fill="#fff"/>
<path d="m115.5 59c1.933 0 3.5-1.567 3.5-3.5s-1.567-3.5-3.5-3.5-3.5 1.567-3.5 3.5 1.567 3.5 3.5 3.5zm0 2c3.038 0 5.5-2.4624 5.5-5.5s-2.462-5.5-5.5-5.5-5.5 2.4624-5.5 5.5 2.462 5.5 5.5 5.5z" clip-rule="evenodd" fill="#E94E2F" fill-rule="evenodd"/>
<path d="m181 14.5c0 3.0376-2.462 5.5-5.5 5.5s-5.5-2.4624-5.5-5.5 2.462-5.5 5.5-5.5 5.5 2.4624 5.5 5.5z" fill="#fff"/>
<path d="m175.5 18c1.933 0 3.5-1.567 3.5-3.5s-1.567-3.5-3.5-3.5-3.5 1.567-3.5 3.5 1.567 3.5 3.5 3.5zm0 2c3.038 0 5.5-2.4624 5.5-5.5s-2.462-5.5-5.5-5.5-5.5 2.4624-5.5 5.5 2.462 5.5 5.5 5.5z" clip-rule="evenodd" fill="#E94E2F" fill-rule="evenodd"/>
<defs>
<linearGradient id="b" x1="328" x2="323.44" y1="36" y2="80.889" gradientUnits="userSpaceOnUse">
<stop stop-color="#33A9FF" offset="0"/>
<stop stop-color="#35DF90" offset="1"/>
</linearGradient>
<linearGradient id="a" x1="324" x2="152.4" y1="7" y2="220.23" gradientUnits="userSpaceOnUse">
<stop stop-color="#35DF90" offset="0"/>
<stop stop-color="#33A9FF" offset="1"/>
</linearGradient>
</defs>
</svg>
