<?xml version="1.0" encoding="UTF-8"?>
<svg fill="none" viewBox="0 0 328 100" xmlns="http://www.w3.org/2000/svg">
<rect width="328" height="100" fill="#fff"/>
<path d="m320 47h1v5h4v2h-4v2h-1v-2h-4v-2h4v-5z" fill="url(#a)"/>
<path d="m308 52h1v1h4v11h-4v1h-1v-1h-4v-11h4v-1z" fill="url(#a)"/>
<path d="m248 34h1v1h4v12h-4v1h-1v-1h-4v-12h4v-1z" fill="url(#a)"/>
<path d="m212 29h1v2h4v7h-4v6h-1v-6h-4v-7h4v-2z" fill="url(#a)"/>
<path d="m176 11h1v4h4v7h-4v1h-1v-1h-4v-7h4v-4z" fill="url(#a)"/>
<path d="m140 5h1v2h4v10h-9v-10h4v-2z" fill="url(#a)"/>
<path d="m128 11h1v6h4v25h-4v5h-1v-5h-4v-25h4v-6z" fill="url(#a)"/>
<path d="m116 39h1v2h4v12h-4v9h-1v-9h-4v-12h4v-2z" fill="url(#a)"/>
<path d="m80 44h1v1h4v31h-4v11h-1v-11h-4v-31h4v-1z" fill="url(#a)"/>
<path d="M8 31H9V43H13V53H9V58H8V53H4V43H8V31Z" fill="url(#a)"/>
<path d="m68 59h1v7h4v14h-4v6h-1v-6h-4v-14h4v-7z" fill="url(#a)"/>
<path d="m56 78h1v3h4v15h-4v4h-1v-4h-4v-15h4v-3z" fill="url(#a)"/>
<path d="m296 50v-3h1v3h4v15h-9v-15h4zm-3 1h7v13h-7v-13zm-9-11v-1h1v1h4v10h-4v1h-1v-1h-4v-10h4zm-3 1h7v8h-7v-8zm-9-4v-5h1v5h4v4h-4v1h-1v-1h-4v-4h4zm-3 1h7v2h-7v-2zm-32 7h4v1h-4v5h-1v-5h-4v-1h4v-2h1v2zm-13-14v-5h1v5h4v14h-4v1h-1v-1h-4v-14h4zm-3 1h7v12h-7v-12zm-20 2h4v5h-4v2h-1v-2h-4v-5h4v-2h1v2zm3 1v3h-7v-3h7zm-16-20v-4h1v4h4v19h-4v1h-1v-1h-4v-19h4zm-3 1h7v17h-7v-17zm-20 7v2h-1v-2h-4v-6h4v-13h1v13h4v6h-4zm3-1h-7v-4h7v4zm-15-3v7h-1v-7h-4v-13h9v13h-4zm3-1h-7v-11h7v11zm-51 36v4h-1v-4h-4v-3h4v-10h1v10h4v3h-4zm3-1h-7v-1h7v1zm-15-2v12h-1v-12h-4v-8h9v8h-4zm3-1h-7v-6h7v6zm-52 41v-10h1v10h4v6h-9v-6h4zm-3 1h7v4h-7v-4zm-8 1v4h-1v-4h-4v-12h4v-3h1v3h4v12h-4zm3-1h-7v-10h7v10zm-16-50v-2h1v2h4v40h-4v1h-1v-1h-4v-40h4zm-3 1h7v38h-7v-38zm243-12h1v5h4v1h-4v3h-1v-3h-4v-1h4v-5z" clip-rule="evenodd" fill="url(#a)" fill-rule="evenodd"/>
<path d="m128.18 24.966-12.16 5.0666-23.769 1.9807-12.378 2.0629-12.54 6.2699-12.024 11.523-11.239 6.0877-11.167-0.9306-12-4-12.455-1.0379-7.583 1.0111h-0.86728v4h1.1328l7.4169-0.9889 11.545 0.9621 12 4 12.833 1.0694 12.761-6.9123 11.976-11.477 11.46-5.7301 11.622-1.937 24.231-2.0193 11.84-4.9335 11.131 0.9276 11.852 5.9259 24.37 6.0926 12 1 12.082 3.0204h24.329l12.245-1.0204 11.592-2.8981 23.378 7.7927 23.966 9.9858 12.009 4.5034 18.837 7.6366h1.39v-4h-0.61l-18.163-7.3634-11.991-4.4966-24.034-10.014-24.622-8.2073-12.408 3.102-11.755 0.9796h-23.671l-11.918-2.9796-12-1-23.63-5.9075-12.148-6.074-12.869-1.0725z" clip-rule="evenodd" fill="#fff" fill-rule="evenodd"/>
<path d="m128.38 25.966-12.121 5.0502-23.884 1.9903-12.189 2.0315-12.27 6.1349-12.012 11.512-11.619 6.2939-11.583-0.9653-12-4-12.227-1.019-7.5415 1.0056h-0.93362v2h1.0664l7.4585-0.9945 11.773 0.9811 12 4 12.417 1.0347 12.381-6.7062 11.988-11.488 11.73-5.8651 11.811-1.9685 24.116-2.0096 11.879-4.9499 11.603 1.9338 11.963 4.9845 24.151 6.0379 12 1 12.041 3.0102h24.165l12.122-1.0102 11.796-2.9491 23.689 7.8964 23.983 9.9929 12.005 4.5017 18.668 7.5683h1.195v-2h-0.805l-18.332-7.4317-11.995-4.4983-24.017-10.007-24.311-8.1036-12.204 3.051-11.878 0.9898h-23.835l-11.959-2.9898-12-1-23.849-5.9622-12.037-5.0155-12.397-2.0662z" clip-rule="evenodd" fill="url(#b)" fill-rule="evenodd"/>
<path d="m64 6h9v1h-9v-1z" fill="#1B93E4"/>
<path d="m64 91h9v1h-9v-1z" fill="#E94E2F"/>
<path d="m208 6h9v1h-9v-1z" fill="#E94E2F"/>
<path d="m208 46h9v1h-9v-1z" fill="#1B93E4"/>
<path d="m128.31 22h1.314v1h-0.936l-1.012 0.894-0.662-0.7495 1.296-1.1445zm4.689 1h-1.125v-1h1.125v1zm-7.631 2.9324-2.307 2.0385-0.662-0.7495 2.307-2.0384 0.662 0.7494zm-4.615 4.0769-2.308 2.0385-0.662-0.7495 2.308-2.0384 0.662 0.7494zm-4.615 4.077-2.308 2.0384-0.662-0.7494 2.308-2.0385 0.662 0.7495zm-4.616 4.0769-2.307 2.0385-0.662-0.7495 2.307-2.0385 0.662 0.7495zm-4.615 4.0769-2.308 2.0385-0.662-0.7495 2.308-2.0385 0.662 0.7495zm-4.615 4.0769-2.3081 2.0385-0.6621-0.7495 2.3082-2.0384 0.662 0.7494zm-4.6158 4.077-2.3077 2.0384-0.6621-0.7494 2.3077-2.0385 0.6621 0.7495zm-4.6154 4.0769-2.3077 2.0384-0.662-0.7494 2.3077-2.0385 0.662 0.7495zm-4.6154 4.0769-2.3077 2.0385-0.662-0.7495 2.3077-2.0385 0.662 0.7495zm-4.6154 4.0769-2.3077 2.0385-0.662-0.7495 2.3077-2.0384 0.662 0.7494zm-4.6154 4.077-2.3077 2.0384-0.662-0.7495 2.3077-2.0384 0.662 0.7495zm-4.6154 4.0769-2.3076 2.0384-0.6621-0.7494 2.3077-2.0385 0.662 0.7495zm-4.6153 4.0769-1.2957 1.1445h-1.3142v-1h0.9358l1.012-0.894 0.6621 0.7495zm-4.8599 1.1445h-1.125v-1h1.125v1z" clip-rule="evenodd" fill="#1B93E4" fill-rule="evenodd"/>
<path d="m63 75h5v1h-5v-1z" fill="#1B93E4"/>
<path d="m129 22h5v1h-5v-1z" fill="#1B93E4"/>
<path d="m58 71v9l4-4.5-4-4.5z" fill="#1B93E4"/>
<path d="m185.12 18h-1.125v-1h1.125v1zm3.216 0h-0.966v-1h1.284l1.33 0.942-0.578 0.816-1.07-0.758zm5.87 4.158-2.4-1.7 0.578-0.816 2.4 1.7-0.578 0.816zm4.8 3.4-2.4-1.7 0.578-0.816 2.4 1.7-0.578 0.816zm4.8 3.4-2.4-1.7 0.578-0.816 2.4 1.7-0.578 0.816zm4.8 3.4-2.4-1.7 0.578-0.816 2.4 1.7-0.578 0.816zm2.4 1.7 0.578-0.816 1.07 0.758h0.966v1h-1.284l-1.33-0.942zm5.989 0.942h-1.125v-1h1.125v1z" clip-rule="evenodd" fill="#E94E2F" fill-rule="evenodd"/>
<path d="m183 17h5v1h-5v-1z" fill="#E94E2F"/>
<path d="m183 17.5v-4.5h-6v9h2l4-4.5z" fill="#fff"/>
<path d="m178 13v9l4-4.5-4-4.5z" fill="#E94E2F"/>
<path d="m139 18v9l-4-4.5 4-4.5z" fill="#E94E2F"/>
<path d="m213 34h5v1h-5v-1z" fill="#E94E2F"/>
<path d="m218 34.5v-4.5h6v9h-2l-4-4.5z" fill="#fff"/>
<path d="m223 30v9l-4-4.5 4-4.5z" fill="#1B93E4"/>
<defs>
<linearGradient id="a" x1="325" x2="146.74" y1="4" y2="218.58" gradientUnits="userSpaceOnUse">
<stop stop-color="#35DF90" offset="0"/>
<stop stop-color="#33A9FF" offset="1"/>
</linearGradient>
<linearGradient id="b" x1="328" x2="0" y1="70" y2="70" gradientUnits="userSpaceOnUse">
<stop stop-color="#E94E2F" offset=".60668"/>
<stop stop-color="#33A9FF" offset=".60969"/>
<stop stop-color="#33A9FF" offset=".86277"/>
<stop stop-color="#E94E2F" offset=".86584"/>
</linearGradient>
</defs>
</svg>
