<svg width="1920" height="1080" viewBox="0 0 1920 1080" xmlns="http://www.w3.org/2000/svg"><rect width="1920" height="1080" fill="#3d1053"/><path d="M1920,1080C1601,1137.1666666666667,296.5,1150.6666666666667,0,1080C-296.5,1009.3333333333334,92.16666666666666,708,141,656C189.83333333333334,604,243.66666666666666,746.6666666666666,293,768C342.3333333333333,789.3333333333334,387.5,748.8333333333334,437,784C486.5,819.1666666666666,541,965.5,590,979C639,992.5,682.1666666666666,910.5,731,865C779.8333333333334,819.5,832.8333333333334,702,883,706C933.1666666666666,710,983,892,1032,889C1081,886,1128.3333333333333,675,1177,688C1225.6666666666667,701,1274.1666666666667,965.1666666666666,1324,967C1373.8333333333333,968.8333333333334,1427.1666666666667,681,1476,699C1524.8333333333333,717,1568.1666666666667,1057.1666666666667,1617,1075C1665.8333333333333,1092.8333333333333,1719.5,862.3333333333334,1769,806C1818.5,749.6666666666666,1888.8333333333333,691.3333333333334,1914,737C1939.1666666666667,782.6666666666666,2239,1022.8333333333334,1920,1080C1601,1137.1666666666667,296.5,1150.6666666666667,0,1080" fill="#53dfb5"/></svg>